<svg xmlns="http://www.w3.org/2000/svg" viewBox="0 0 64 64" role="img" aria-label="SpendSeer">
  <defs>
    <linearGradient id="g" x1="0" x2="1" y1="0" y2="1">
      <stop offset="0" stop-color="#0f6c64"/>
      <stop offset="1" stop-color="#0b564f"/>
    </linearGradient>
  </defs>
  <rect width="64" height="64" rx="14" fill="url(#g)"/>
  <path d="M16 36c0 8 6.5 13 16 13 7.8 0 13.8-3.4 13.8-10 0-7-6.2-8.5-12.8-9.8-5.8-1.2-9-2.1-9-5.3 0-2.7 2.6-4.3 6.8-4.3 4.4 0 7.2 1.8 8.6 5.2l6.2-3.2c-2-5.3-6.9-8.3-14.7-8.3-8.4 0-14.6 4.1-14.6 10.8 0 6.9 5.6 8.6 12 9.9 6 1.2 9.6 2.1 9.6 5.3 0 3-2.8 4.6-7.6 4.6-5.3 0-8.7-2.1-10.2-6.1z" fill="#fff"/>
</svg>
